<svg width="81" height="23" viewBox="0 0 81 23" fill="none" xmlns="http://www.w3.org/2000/svg">
<path d="M0.376 0.5609H3.448V12.4889L12.472 0.5609H15.376V17.3609H12.304V5.4569L3.28 17.3609H0.376V0.5609ZM29.5904 7.0889H22.7504V17.3609H19.7504V4.5449H29.5904V7.0889ZM38.8778 4.4009C40.1258 4.4009 41.2378 4.6729 42.2138 5.2169C43.2058 5.7609 43.9818 6.5289 44.5418 7.5209C45.1018 8.5129 45.3818 9.6569 45.3818 10.9529C45.3818 12.2489 45.1018 13.4009 44.5418 14.4089C43.9818 15.4009 43.2058 16.1689 42.2138 16.7129C41.2378 17.2569 40.1258 17.5289 38.8778 17.5289C37.1498 17.5289 35.7818 16.9529 34.7738 15.8009V22.0169H31.7738V4.5449H34.6298V6.2249C35.1258 5.6169 35.7338 5.1609 36.4538 4.8569C37.1898 4.5529 37.9978 4.4009 38.8778 4.4009ZM38.5418 14.9609C39.6458 14.9609 40.5498 14.5929 41.2538 13.8569C41.9738 13.1209 42.3338 12.1529 42.3338 10.9529C42.3338 9.7529 41.9738 8.7849 41.2538 8.0489C40.5498 7.3129 39.6458 6.9449 38.5418 6.9449C37.8218 6.9449 37.1738 7.1129 36.5978 7.4489C36.0218 7.7689 35.5658 8.2329 35.2298 8.8409C34.8938 9.4489 34.7258 10.1529 34.7258 10.9529C34.7258 11.7529 34.8938 12.4569 35.2298 13.0649C35.5658 13.6729 36.0218 14.1449 36.5978 14.4809C37.1738 14.8009 37.8218 14.9609 38.5418 14.9609ZM52.9795 4.4009C54.8675 4.4009 56.3075 4.8569 57.2995 5.7689C58.3075 6.6649 58.8115 8.0249 58.8115 9.8489V17.3609H55.9795V15.8009C55.6115 16.3609 55.0835 16.7929 54.3955 17.0969C53.7235 17.3849 52.9075 17.5289 51.9475 17.5289C50.9875 17.5289 50.1475 17.3689 49.4275 17.0489C48.7075 16.7129 48.1475 16.2569 47.7475 15.6809C47.3635 15.0889 47.1715 14.4249 47.1715 13.6889C47.1715 12.5369 47.5955 11.6169 48.4435 10.9289C49.3075 10.2249 50.6595 9.8729 52.4995 9.8729H55.8115V9.6809C55.8115 8.7849 55.5395 8.0969 54.9955 7.6169C54.4675 7.1369 53.6755 6.8969 52.6195 6.8969C51.8995 6.8969 51.1875 7.0089 50.4835 7.2329C49.7955 7.4569 49.2115 7.7689 48.7315 8.1689L47.5555 5.9849C48.2275 5.4729 49.0355 5.0809 49.9795 4.8089C50.9235 4.5369 51.9235 4.4009 52.9795 4.4009ZM52.5715 15.3449C53.3235 15.3449 53.9875 15.1769 54.5635 14.8409C55.1555 14.4889 55.5715 13.9929 55.8115 13.3529V11.8649H52.7155C50.9875 11.8649 50.1235 12.4329 50.1235 13.5689C50.1235 14.1129 50.3395 14.5449 50.7715 14.8649C51.2035 15.1849 51.8035 15.3449 52.5715 15.3449ZM75.3486 7.4969C76.9006 7.6889 78.0846 8.2169 78.9006 9.0809C79.7166 9.9449 80.1246 11.0249 80.1246 12.3209C80.1246 13.2969 79.8766 14.1849 79.3806 14.9849C78.8846 15.7849 78.1326 16.4249 77.1246 16.9049C76.1326 17.3689 74.9166 17.6009 73.4766 17.6009C72.2766 17.6009 71.1166 17.4329 69.9966 17.0969C68.8926 16.7449 67.9486 16.2649 67.1646 15.6569L68.5086 13.2329C69.1166 13.7449 69.8526 14.1529 70.7166 14.4569C71.5966 14.7449 72.5006 14.8889 73.4286 14.8889C74.5326 14.8889 75.3966 14.6649 76.0206 14.2169C76.6606 13.7529 76.9806 13.1289 76.9806 12.3449C76.9806 11.5609 76.6766 10.9529 76.0686 10.5209C75.4766 10.0729 74.5646 9.8489 73.3326 9.8489H71.7966V7.7129L75.6126 3.1769H67.9806V0.5609H79.4286V2.6489L75.3486 7.4969Z" fill="white"/>
</svg>
